<svg width="18" height="18" viewBox="0 0 18 18" fill="none" xmlns="http://www.w3.org/2000/svg">
  <path
    d="M13.068 6.27426L13.068 6.27428L13.0735 6.27511L17.9859 7.02425L17.9859 7.02428L17.9879 7.02457C17.9886 7.02526 17.9896 7.02634 17.9907 7.02796L18.5991 6.58934L17.9907 7.02797C17.9964 7.03583 18.0017 7.05065 17.9995 7.06824C17.9976 7.07999 17.9926 7.08632 17.9909 7.08801L17.9909 7.08794L17.9828 7.09623L14.4277 10.7321C14.0737 11.0877 13.9214 11.5948 14.0078 12.0827L14.8625 17.1953C14.8642 17.2121 14.8596 17.2249 14.8539 17.2331C14.8539 17.2332 14.8538 17.2333 14.8537 17.2334C14.8526 17.2331 14.8514 17.2326 14.8501 17.232L10.484 14.8233C10.0374 14.5703 9.49407 14.5703 9.04744 14.8235L4.66019 17.2475C4.65912 17.2463 4.65773 17.2446 4.65616 17.2421C4.65135 17.2303 4.64911 17.2157 4.65111 17.2006L5.50744 12.0785L5.50793 12.0756C5.58667 11.5926 5.43661 11.0937 5.09253 10.7379L5.09255 10.7379L5.08773 10.733L1.51233 7.1026C1.5063 7.09534 1.5 7.0826 1.5 7.06318C1.5 7.05019 1.50282 7.0402 1.50648 7.03283C1.5153 7.02707 1.52398 7.02334 1.53204 7.02112L6.42394 6.27511L6.4384 6.27276C6.933 6.18742 7.34397 5.86212 7.55448 5.4178L7.55509 5.41651L9.74851 0.763924C9.74928 0.765177 9.75004 0.766516 9.75079 0.767947L11.9411 5.41384C12.1498 5.86458 12.5665 6.19398 13.068 6.27426Z"
    stroke="#FFBF66" stroke-width="1.5" stroke-linecap="round" stroke-linejoin="round" />
</svg>