<svg width="18" height="18" viewBox="0 0 18 18" fill="none" xmlns="http://www.w3.org/2000/svg">
  <path
    d="M4.37416 10.476L7.77381 13.8777L14.014 7.63719L10.6124 4.23735L4.37416 10.476ZM17.967 5.80658L16.5204 4.35895C16.153 4.55972 15.7304 4.63608 15.316 4.57658C14.9015 4.51709 14.5175 4.32494 14.2214 4.02891C13.9252 3.73288 13.733 3.3489 13.6733 2.93444C13.6137 2.51999 13.6899 2.09737 13.8905 1.72984L12.4439 0.28221C12.2616 0.10143 12.0152 0 11.7584 0C11.5017 0 11.2553 0.10143 11.0729 0.28221L0.532195 10.8235C0.351425 11.0059 0.25 11.2523 0.25 11.509C0.25 11.7658 0.351425 12.0122 0.532195 12.1946L1.97975 13.6403C2.34737 13.439 2.77033 13.3623 3.18521 13.4217C3.60009 13.4812 3.98451 13.6736 4.28081 13.97C4.57712 14.2664 4.76933 14.6509 4.82862 15.0658C4.88792 15.4808 4.81109 15.9037 4.60967 16.2713L6.05723 17.717C6.23933 17.8982 6.48579 18 6.74271 18C6.99963 18 7.24609 17.8982 7.42819 17.717L17.967 7.17762C18.1483 6.99551 18.25 6.74903 18.25 6.4921C18.25 6.23517 18.1483 5.98869 17.967 5.80658ZM7.77381 15.4335L2.81842 10.476L10.6134 2.68153L15.5688 7.63719L7.77381 15.4335Z"
    fill="#FFBF66" />
</svg>