<svg width="18" height="18" viewBox="0 0 18 18" fill="none" xmlns="http://www.w3.org/2000/svg">
  <path
    d="M12.818 6.27426L12.818 6.27428L12.8235 6.27511L17.7359 7.02425L17.7359 7.02428L17.7379 7.02457C17.7386 7.02526 17.7396 7.02634 17.7407 7.02796L18.3491 6.58934L17.7407 7.02797C17.7464 7.03583 17.7517 7.05065 17.7495 7.06824C17.7476 7.07999 17.7426 7.08632 17.7409 7.08801L17.7409 7.08794L17.7328 7.09623L14.1777 10.7321C13.8237 11.0877 13.6714 11.5948 13.7578 12.0827L14.6125 17.1953C14.6142 17.2121 14.6096 17.2249 14.6039 17.2331C14.6039 17.2332 14.6038 17.2333 14.6037 17.2334C14.6026 17.2331 14.6014 17.2326 14.6001 17.232L10.234 14.8233C9.78737 14.5703 9.24407 14.5703 8.79744 14.8235L4.41019 17.2475C4.40912 17.2463 4.40773 17.2446 4.40616 17.2421C4.40135 17.2303 4.39911 17.2157 4.40111 17.2006L5.25744 12.0785L5.25793 12.0756C5.33667 11.5926 5.18661 11.0937 4.84253 10.7379L4.84255 10.7379L4.83773 10.733L1.26233 7.1026C1.2563 7.09534 1.25 7.0826 1.25 7.06318C1.25 7.05019 1.25282 7.0402 1.25648 7.03283C1.2653 7.02707 1.27398 7.02334 1.28204 7.02112L6.17394 6.27511L6.1884 6.27276C6.683 6.18742 7.09397 5.86212 7.30448 5.4178L7.30509 5.41651L9.49851 0.763924C9.49928 0.765177 9.50004 0.766516 9.50079 0.767947L11.6911 5.41384C11.8998 5.86458 12.3165 6.19398 12.818 6.27426Z"
    fill="#FFBF66" stroke="#FFBF66" stroke-width="1.5" stroke-linecap="round" stroke-linejoin="round" />
</svg>